<svg width="200" height="200" viewBox="0 0 200 200" fill="none" xmlns="http://www.w3.org/2000/svg">
<rect width="200" height="200" fill="#1E1E1E"/>
<rect width="200" height="200" fill="white"/>
<rect x="40" y="30" width="120" height="120" rx="4" fill="#F97316"/>
<path d="M67.9845 82.575V84.425H63.2345V100H60.9595V84.425H56.1845V82.575H67.9845ZM76.7599 100.225C75.4765 100.225 74.3099 99.9333 73.2599 99.35C72.2265 98.7667 71.4099 97.9417 70.8099 96.875C70.2265 95.7917 69.9349 94.5417 69.9349 93.125C69.9349 91.725 70.2349 90.4917 70.8349 89.425C71.4515 88.3417 72.2849 87.5167 73.3349 86.95C74.3849 86.3667 75.5599 86.075 76.8599 86.075C78.1599 86.075 79.3349 86.3667 80.3849 86.95C81.4349 87.5167 82.2599 88.3333 82.8599 89.4C83.4765 90.4667 83.7849 91.7083 83.7849 93.125C83.7849 94.5417 83.4682 95.7917 82.8349 96.875C82.2182 97.9417 81.3765 98.7667 80.3099 99.35C79.2432 99.9333 78.0599 100.225 76.7599 100.225ZM76.7599 98.225C77.5765 98.225 78.3432 98.0333 79.0599 97.65C79.7765 97.2667 80.3515 96.6917 80.7849 95.925C81.2349 95.1583 81.4599 94.225 81.4599 93.125C81.4599 92.025 81.2432 91.0917 80.8099 90.325C80.3765 89.5583 79.8099 88.9917 79.1099 88.625C78.4099 88.2417 77.6515 88.05 76.8349 88.05C76.0015 88.05 75.2349 88.2417 74.5349 88.625C73.8515 88.9917 73.3015 89.5583 72.8849 90.325C72.4682 91.0917 72.2599 92.025 72.2599 93.125C72.2599 94.2417 72.4599 95.1833 72.8599 95.95C73.2765 96.7167 73.8265 97.2917 74.5099 97.675C75.1932 98.0417 75.9432 98.225 76.7599 98.225ZM94.4261 100L89.0511 93.95V100H86.7761V81.5H89.0511V92.375L94.3261 86.3H97.5011L91.0511 93.125L97.5261 100H94.4261ZM105.617 100.225C104.334 100.225 103.167 99.9333 102.117 99.35C101.084 98.7667 100.267 97.9417 99.6673 96.875C99.084 95.7917 98.7923 94.5417 98.7923 93.125C98.7923 91.725 99.0923 90.4917 99.6923 89.425C100.309 88.3417 101.142 87.5167 102.192 86.95C103.242 86.3667 104.417 86.075 105.717 86.075C107.017 86.075 108.192 86.3667 109.242 86.95C110.292 87.5167 111.117 88.3333 111.717 89.4C112.334 90.4667 112.642 91.7083 112.642 93.125C112.642 94.5417 112.326 95.7917 111.692 96.875C111.076 97.9417 110.234 98.7667 109.167 99.35C108.101 99.9333 106.917 100.225 105.617 100.225ZM105.617 98.225C106.434 98.225 107.201 98.0333 107.917 97.65C108.634 97.2667 109.209 96.6917 109.642 95.925C110.092 95.1583 110.317 94.225 110.317 93.125C110.317 92.025 110.101 91.0917 109.667 90.325C109.234 89.5583 108.667 88.9917 107.967 88.625C107.267 88.2417 106.509 88.05 105.692 88.05C104.859 88.05 104.092 88.2417 103.392 88.625C102.709 88.9917 102.159 89.5583 101.742 90.325C101.326 91.0917 101.117 92.025 101.117 93.125C101.117 94.2417 101.317 95.1833 101.717 95.95C102.134 96.7167 102.684 97.2917 103.367 97.675C104.051 98.0417 104.801 98.225 105.617 98.225ZM125.083 100L117.908 92.05V100H115.633V82.575H117.908V90.65L125.108 82.575H127.983L120.083 91.3L128.058 100H125.083ZM142.749 86.3V100H140.474V97.975C140.041 98.675 139.433 99.225 138.649 99.625C137.883 100.008 137.033 100.2 136.099 100.2C135.033 100.2 134.074 99.9833 133.224 99.55C132.374 99.1 131.699 98.4333 131.199 97.55C130.716 96.6667 130.474 95.5917 130.474 94.325V86.3H132.724V94.025C132.724 95.375 133.066 96.4167 133.749 97.15C134.433 97.8667 135.366 98.225 136.549 98.225C137.766 98.225 138.724 97.85 139.424 97.1C140.124 96.35 140.474 95.2583 140.474 93.825V86.3H142.749Z" fill="white"/>
</svg>
